<svg xmlns="http://www.w3.org/2000/svg" viewBox="0 0 600 400" width="600" height="400">

    <!-- <rect width="800" height="400" fill="#00bbbb"/> -->
    
    <line class="axis" x1="50" y1="50" x2="50" y2="350" stroke-linecap="round" stroke-width="2px" stroke="#ffffff"/> <!-- y -->

    <text x="300" y="35" font-size="16px" text-align="center" text-anchor="middle" stroke-width="0px" fill="#ffffff">2022 Statewide Cost of Living</text>

   
    {% for i in range (8) %}
        <text x="35" y="{{50+300/7*loop.index0+4}}" font-size="8px" text-align="center" color="#ffffff" stroke-width="0px" fill="#ffffff" text-anchor="middle">{{350-50*i}}.0</text>
    {% endfor %}

    {% for i in range(6) %}
        <rect x="{{50+500/36+loop.index0*500/6}}" y="{{50+(350-bars[loop.index0][0])/350*300}}" width="{{500/6*2/3}}" height="{{bars[loop.index0][0]/350*300}}" fill="#dbac34" stroke-width="0px"/>
        <text x="{{50+500/36+loop.index0*500/6+(500/6*2/3/2)}}" y="365" font-size="8px" text-align="center" stroke-width="0px" fill="#ffffff" text-anchor="middle">{{bars[loop.index0][1]}}</text>
        <text x="{{50+500/36+loop.index0*500/6+(500/6*2/3/2)}}" y="335" font-size="8px" text-align="center" stroke-width="0px" fill="#ffffff" text-anchor="middle">{{bars[loop.index0][0]}}</text>
    {% endfor %}

    <line x1="{{50+500/6/6/2}}" y1="{{50+(350-100)/350*300}}" x2="{{550-500/6/6/2}}" y2="{{50+(350-100)/350*300}}" stroke-width="1px" stroke="#ffffff"/> <!-- natl -->
    <line x1="{{50+500/6/6/2}}" y1="{{50+(350-line)/350*300}}" x2="{{550-500/6/6/2}}" y2="{{50+(350-line)/350*300}}" stroke-width="1px" stroke="#dbac34"/> <!-- state -->


    <line x1="530" y1="65" x2="550" y2="65" stroke-width="1px" stroke="#ffffff"/> <!-- natl leg -->
    <text x="525" y="69" font-size="8px" stroke-width="0px" fill="#ffffff" text-anchor="end">Federal baseline</text>
    <line x1="530" y1="80" x2="550" y2="80" stroke-width="1px" stroke="#dbac34"/> <!-- state leg -->
    <text x="525" y="84" font-size="8px" stroke-width="0px" fill="#dbac34" text-anchor="end">State COLI</text>

    <text x="300" y="395" font-size="13px" text-align="center" stroke-width="0px" fill="#ffffff" text-anchor="middle">Expense</text>
    <text x="33" y="220" transform="rotate(-90, 40, 250)" fill="#ffffff" font-size="13px">Cost of Living Index</text>
    
    <line class="axis" x1="50" y1="350" x2="550" y2="350" stroke-linecap="round" stroke-width="2px" stroke="#ffffff"/> <!-- x -->



</svg>